<?xml version="1.0" encoding="UTF-8" standalone="no"?>
<!-- Created with Inkscape (http://www.inkscape.org/) -->

<svg
   xmlns:dc="http://purl.org/dc/elements/1.1/"
   xmlns:cc="http://creativecommons.org/ns#"
   xmlns:rdf="http://www.w3.org/1999/02/22-rdf-syntax-ns#"
   xmlns:svg="http://www.w3.org/2000/svg"
   xmlns="http://www.w3.org/2000/svg"
   xmlns:xlink="http://www.w3.org/1999/xlink"
   xmlns:sodipodi="http://sodipodi.sourceforge.net/DTD/sodipodi-0.dtd"
   xmlns:inkscape="http://www.inkscape.org/namespaces/inkscape"
   version="1.1"
   id="svg886"
   width="700"
   height="700"
   viewBox="0 0 700 700"
   sodipodi:docname="A.I.Lab_square.svg"
   inkscape:version="0.92.2 (5c3e80d, 2017-08-06)"
   inkscape:export-filename="C:\Users\acer\OneDrive\UTB\A.I.Lab\logo\A.I.Lab_square.png"
   inkscape:export-xdpi="96"
   inkscape:export-ydpi="96">
  <metadata
     id="metadata892">
    <rdf:RDF>
      <cc:Work
         rdf:about="">
        <dc:format>image/svg+xml</dc:format>
        <dc:type
           rdf:resource="http://purl.org/dc/dcmitype/StillImage" />
        <dc:title />
      </cc:Work>
    </rdf:RDF>
  </metadata>
  <defs
     id="defs890">
    <linearGradient
       inkscape:collect="always"
       id="linearGradient904">
      <stop
         style="stop-color:#000000;stop-opacity:1;"
         offset="0"
         id="stop900" />
      <stop
         style="stop-color:#00ff66;stop-opacity:1"
         offset="1"
         id="stop902" />
    </linearGradient>
    <linearGradient
       inkscape:collect="always"
       xlink:href="#linearGradient904"
       id="linearGradient906"
       x1="443.89594"
       y1="295.84869"
       x2="77.588219"
       y2="113.63633"
       gradientUnits="userSpaceOnUse"
       gradientTransform="matrix(1.7799945,0,0,1.7799945,-1.960415,-75.42803)" />
  </defs>
  <sodipodi:namedview
     pagecolor="#ffffff"
     bordercolor="#666666"
     borderopacity="1"
     objecttolerance="10"
     gridtolerance="10"
     guidetolerance="10"
     inkscape:pageopacity="0"
     inkscape:pageshadow="2"
     inkscape:window-width="1920"
     inkscape:window-height="1017"
     id="namedview888"
     showgrid="false"
     inkscape:zoom="1"
     inkscape:cx="40.871996"
     inkscape:cy="374.28397"
     inkscape:window-x="1358"
     inkscape:window-y="-8"
     inkscape:window-maximized="1"
     inkscape:current-layer="svg886"
     inkscape:pagecheckerboard="true" />
  <path
     style="fill:url(#linearGradient906);fill-opacity:1;stroke-width:2.37332606"
     d="m 414.0203,476.55739 c -7.76106,-1.6033 -17.33601,-12.33357 -21.24643,-23.80999 -2.01281,-5.90731 -3.34233,-11.0579 -2.95445,-11.44574 0.38788,-0.38788 7.42585,7.3481 15.63996,17.19104 8.2141,9.84295 14.56861,18.15481 14.12114,18.47076 -0.44746,0.31598 -2.94956,0.13332 -5.56022,-0.40607 z m -3.29634,-22.91478 c -9.68374,-11.49962 -16.52319,-21.59632 -15.37849,-22.70244 3.16102,-3.05458 27.63473,2.5325 32.32146,7.37859 4.27497,4.42037 5.27604,18.96697 2.08861,30.35026 -1.47279,5.25976 -2.89301,4.13844 -19.03158,-15.02641 z m 42.03656,-22.00725 c -10.7632,-1.64669 -11.63327,-4.8471 -10.92234,-40.17604 l 0.66203,-32.9006 13.59047,34.2377 c 10.24154,25.80095 12.94788,35.01203 10.98271,37.37988 -1.4343,1.72822 -3.81202,2.98219 -5.28383,2.7866 -1.47184,-0.19557 -5.53491,-0.79297 -9.02904,-1.32754 z m 27.42595,-4.8963 c -5.69209,-4.63695 -30.24149,-66.07108 -28.3608,-70.97208 0.66303,-1.72784 2.57403,-3.1029 4.24669,-3.05563 1.67263,0.0472 21.73107,10.10489 44.57434,22.35027 27.26101,14.61358 41.5332,23.57158 41.5332,26.0685 0,2.54894 -9.32525,8.09554 -28.26117,16.80963 -15.54364,7.15296 -28.3596,12.98166 -28.47991,12.95264 -0.12033,-0.029 -2.48388,-1.89802 -5.25235,-4.15333 z m -68.81432,-2.33879 c -22.86183,-5.07581 -23.00058,-8.30495 -1.65647,-38.54829 9.67294,-13.70595 18.87054,-24.91992 20.43918,-24.91992 2.04082,0 3.03742,8.77573 3.50381,30.85323 0.78343,37.08564 0.39696,37.65121 -22.28652,32.61498 z M 381.9804,402.73774 c 0,-9.26608 6.39965,-19.02673 19.43953,-29.64896 7.40679,-6.03354 14.03446,-10.97007 14.72815,-10.97007 0.69367,0 -5.85153,10.14597 -14.54494,22.54661 -8.69338,12.40063 -16.66489,22.5466 -17.71445,22.5466 -1.04957,0 -1.90829,-2.01339 -1.90829,-4.47418 z m 157.60409,-14.2728 c -3.93046,-2.39028 -19.90637,-11.11441 -35.50201,-19.38697 -15.59563,-8.27257 -32.62769,-17.5299 -37.84902,-20.57182 l -9.4933,-5.53078 32.0399,1.35059 c 45.8664,1.93341 55.96406,3.25326 60.03413,7.84686 5.32905,6.01453 6.55661,32.81895 1.70413,37.21039 -3.31581,3.00075 -4.67754,2.88638 -10.93383,-0.91827 z M 359.82835,372.29825 c -7.51913,-5.34993 -8.45069,-6.8664 -5.52998,-9.00207 4.50178,-3.29178 60.85712,-16.26 62.69096,-14.42614 0.76013,0.76012 0.93706,1.73245 0.39318,2.16073 -0.54389,0.42827 -8.58299,6.83625 -17.86463,14.23996 -19.52632,15.57557 -26.05175,16.73095 -39.68953,7.02752 z m -60.7348,-17.56498 c -12.30186,-1.09233 -23.25374,-2.87277 -24.33753,-3.95656 -2.45433,-2.45433 41.96949,-68.16441 46.08308,-68.16441 4.37501,0 12.53917,61.84887 9.14693,69.29401 -1.36971,3.00618 -3.84826,5.3189 -5.50791,5.13938 -1.65963,-0.17942 -13.08269,-1.22011 -25.38457,-2.31242 z m 47.10006,-5.18198 c -5.01332,-4.28617 -6.61743,-8.66638 -8.86941,-24.21912 -5.08278,-35.10284 -5.77334,-45.63528 -3.10034,-47.2873 1.40721,-0.86967 10.54388,3.80718 20.3037,10.39307 9.75985,6.58586 18.40368,11.97431 19.20854,11.97431 0.80485,0 2.87161,1.335 4.59282,2.96664 1.72118,1.63167 11.30932,8.10115 21.30696,14.37665 15.77475,9.90175 17.96628,12.09775 16.57945,16.61327 -0.87891,2.86181 -1.73236,5.33682 -1.89655,5.50001 -0.16429,0.16322 -12.58044,3.16241 -27.59173,6.66494 -15.01129,3.50255 -28.89525,6.79167 -30.85325,7.30917 -1.95799,0.51748 -6.31408,-1.41374 -9.68019,-4.29164 z M 244.25297,331.2917 c -15.24473,-16.64893 -15.00893,-18.67396 3.14865,-27.04043 36.39234,-16.76846 61.7854,-27.58365 62.67505,-26.69404 2.20705,2.20708 -44.03637,66.78913 -48.27303,67.4165 -2.86189,0.42382 -9.05604,-4.40498 -17.55067,-13.68203 z m 263.51371,7.09376 c -11.09531,-0.81896 -19.10529,-1.69456 -17.79995,-1.94577 5.02614,-0.96732 80.87565,-9.8924 84.18782,-9.90627 7.09183,-0.0297 -8.15256,8.05645 -16.41533,8.7072 -4.62152,0.36394 -8.76699,1.75443 -9.21215,3.08994 -0.84353,2.53059 -7.10534,2.53901 -40.76039,0.0548 z m -55.61506,-11.39033 c -4.1516,-5.50388 -3.99267,-6.38511 7.2922,-40.43129 15.4716,-46.67753 11.92172,-46.42767 71.90017,-5.06069 40.62905,28.02178 51.32475,37.63948 42.28247,38.02083 -1.63165,0.0689 -28.67607,3.04393 -60.0987,6.6114 l -57.13204,6.4863 z m -45.2513,-13.83958 c -6.52665,-4.5953 -13.46863,-9.07543 -15.42663,-9.95587 -1.95799,-0.88042 -14.37993,-8.88804 -27.60429,-17.79474 -31.07846,-20.93153 -31.89587,-23.75307 -15.7514,-54.37282 12.74353,-24.16949 17.13438,-25.91284 25.46778,-10.11172 20.11843,38.14699 51.11448,98.53199 51.11448,99.57873 0,3.17843 -6.89703,0.33297 -17.79994,-7.34358 z m 24.07273,0.90331 c -3.45194,-5.53566 -34.2244,-64.39473 -48.46982,-92.70912 -4.47428,-8.89318 -7.6256,-16.67885 -7.00294,-17.30151 0.62266,-0.62266 9.0104,1.96997 18.63941,5.76141 9.62899,3.79142 21.77926,8.23559 27.00057,9.87591 20.41944,6.41496 32.03991,12.4632 32.03991,16.67623 0,2.30531 1.9802,6.63691 4.40048,9.6258 4.90618,6.05891 6.05668,0.0918 -10.15013,52.64467 -6.72235,21.79819 -10.35872,25.20679 -16.45748,15.42661 z m 103.33847,-39.00285 c -25.21289,-17.73351 -44.94966,-33.13472 -43.85949,-34.22488 1.09018,-1.09019 25.45688,-2.69346 54.14825,-3.56289 66.18883,-2.00564 63.19456,-3.82259 55.82175,33.87301 -6.30999,32.26162 -8.01672,36.4228 -14.87805,36.27425 -2.96497,-0.0643 -26.01958,-14.62595 -51.23246,-32.35949 z m -362.96381,18.85018 c -20.7205,-6.25853 -36.19321,-12.16008 -36.19321,-13.80473 0,-1.58001 17.35495,-13.54734 38.56653,-26.59406 21.21161,-13.04672 44.20682,-27.23468 51.10047,-31.52881 16.04601,-9.99524 18.60489,-7.90366 13.44118,10.9867 -2.11187,7.7259 -4.6724,17.25112 -5.69002,21.1671 -6.83391,26.29802 -13.20581,43.23258 -17.61692,46.82041 -2.77281,2.25529 -5.57548,4.05214 -6.22813,3.99295 -0.65268,-0.0591 -17.47363,-5.02697 -37.3799,-11.03956 z m 57.83114,6.95583 c -1.15993,-1.87681 4.68239,-24.74703 14.96872,-58.59626 1.19,-3.91599 2.87017,-10.59097 3.73369,-14.83328 1.0862,-5.33641 2.91483,-7.71333 5.934,-7.71333 2.40018,0 5.88907,-0.58522 7.75312,-1.30053 2.00992,-0.77127 10.05693,4.60776 19.77403,13.21802 31.15282,27.60428 31.83992,28.46187 27.62188,34.47458 -1.31701,1.87738 -54.25571,26.96863 -75.67004,35.86518 -1.49962,0.62304 -3.35155,0.12158 -4.1154,-1.11438 z M 124.18883,270.16007 c -4.1426,-0.70018 -6.58995,-5.70955 -13.84191,-28.33233 -7.29275,-22.74999 -8.26516,-27.99097 -5.64762,-30.43908 2.26643,-2.11976 20.97182,-3.39684 66.04611,-4.50918 53.58129,-1.32226 62.35885,-1.06662 59.33316,1.72808 -2.89226,2.67143 -89.50993,56.47927 -98.33048,61.08392 -1.3898,0.72555 -4.79148,0.93641 -7.55926,0.46859 z M 293.574,232.22433 c -12.72696,-11.233 -23.13993,-22.27718 -23.13993,-24.54264 0,-3.56506 3.43119,-4.31266 25.51327,-5.55894 14.03228,-0.79194 31.58959,-1.93959 39.01626,-2.5503 20.51925,-1.68737 20.59408,2.52305 0.67436,37.94665 -3.67012,6.52665 -6.75944,11.9834 -6.86518,12.12609 -0.10555,0.14257 -2.86221,0.87673 -6.12553,1.63113 -4.95668,1.14589 -9.74223,-1.99014 -29.07325,-19.05199 z m 195.75416,-5.38951 c -2.65716,-4.25475 0.52935,-9.18681 31.80985,-49.23523 19.11953,-24.47873 35.6882,-45.52904 36.81926,-46.77841 3.80823,-4.20665 8.53087,4.20217 27.04397,48.15262 15.45863,36.69905 17.81319,43.98868 15.04587,46.5813 -2.37261,2.2228 -17.74165,3.47974 -55.52337,4.54085 -50.43333,1.41649 -52.3449,1.30353 -55.19558,-3.26113 z m -42.08129,-4.8385 c -2.61067,-1.18151 -18.96228,-7.61781 -36.33695,-14.30283 -25.51295,-9.81635 -32.0124,-13.2648 -33.78428,-17.92523 -1.20669,-3.17382 -3.81202,-6.39148 -5.78959,-7.15037 -5.14328,-1.97367 -5.34636,-50.71177 -0.21132,-50.71177 1.86137,0 19.13157,17.88894 38.37823,39.7532 19.24665,21.86428 37.68146,42.6902 40.96623,46.27984 6.1117,6.67893 5.17541,7.85779 -3.22232,4.05716 z m -27.31377,-50.5996 c -21.99548,-24.94945 -39.7366,-45.61781 -39.42471,-45.92968 1.69018,-1.69019 90.33045,39.28313 91.21911,42.16536 0.58228,1.88849 2.58614,5.19136 4.45307,7.33969 2.83658,3.2642 2.93133,6.38434 0.57649,18.98661 -1.54983,8.29429 -3.12895,16.27422 -3.50914,17.73323 -0.38017,1.45899 -3.53338,3.196 -7.00714,3.86004 -5.72099,1.09367 -10.08287,-3.06545 -46.30768,-44.15525 z m 63.48477,26.50485 c 2.57965,-12.53757 5.01857,-18.2557 9.18397,-21.53219 3.11933,-2.45368 5.67152,-6.41198 5.67152,-8.79625 0,-2.89712 7.16945,-8.79093 21.61448,-17.76872 11.88797,-7.38851 21.93834,-13.1032 22.33414,-12.69934 0.97987,0.99986 -58.99722,77.66862 -60.84589,77.77933 -0.80885,0.0484 0.10982,-7.59381 2.04178,-16.98283 z m -380.60361,-0.65584 c -0.68092,-1.77443 1.90499,-13.04117 5.74647,-25.03724 l 6.98446,-21.81102 10.97351,-0.86464 c 9.94008,-0.78321 15.47177,1.37423 58.7386,22.90898 26.27084,13.07552 47.37179,24.10999 46.89101,24.52109 -0.48076,0.41108 -29.49905,1.36878 -64.48508,2.12824 -52.37614,1.13691 -63.82962,0.81098 -64.84897,-1.84541 z m 161.019,-10.36283 c -7.74516,-8.01405 -7.77893,-8.15191 -6.21702,-25.38815 1.33357,-14.71648 2.2984,-17.5207 6.39709,-18.59252 3.33286,-0.87158 17.3394,6.22939 45.2568,22.94409 l 40.43016,24.20629 -17.67985,1.51586 c -9.7239,0.83373 -27.2918,1.93357 -39.03977,2.44408 l -21.35993,0.92817 z m -77.05895,-22.7558 c -27.08555,-13.0943 -49.24649,-24.51455 -49.24649,-25.37835 0,-0.86379 22.95233,-2.35293 51.00519,-3.30918 l 51.0052,-1.73863 4.689,5.62923 c 3.7361,4.48523 4.70202,9.24665 4.75298,23.42918 0.061,16.95922 -0.24363,17.97413 -6.44769,21.48774 -6.35994,3.6019 -7.65895,3.13314 -55.75819,-20.11999 z m 123.41298,-6.81441 c -21.86428,-13.30395 -39.75322,-24.82053 -39.75322,-25.59246 0,-0.77193 15.75295,-3.65376 35.00656,-6.40408 34.93359,-4.99014 35.01646,-4.99073 39.75321,-0.28362 2.61066,2.59432 6.66604,6.02569 9.01193,7.62528 3.53502,2.4104 4.34767,6.75994 4.74664,25.4049 0.44803,20.93701 0.15237,22.52925 -4.26526,22.96777 -2.61066,0.25915 -22.6356,-10.41388 -44.49986,-23.71779 z m 115.3252,-21.22748 c -42.74797,-18.8965 -43.0913,-19.10794 -42.71986,-26.30823 0.32248,-6.25154 3.88907,-9.99136 25.70636,-26.9549 22.35279,-17.37991 26.17821,-19.52703 32.52788,-18.2571 6.99422,1.39885 7.59809,2.64574 21.54126,44.47844 7.8899,23.6716 14.3453,43.83951 14.3453,44.81759 0,3.95896 -10.2553,0.41239 -51.40094,-17.7758 z m 64.32295,16.52559 c -3.64237,-1.82626 -8.61759,-13.55922 -19.64217,-46.32176 -8.12037,-24.13179 -14.23757,-44.4027 -13.5938,-45.04645 0.64374,-0.64375 18.02672,8.75068 38.6288,20.87651 51.41602,30.26212 55.25826,32.79022 55.25826,36.35854 0,2.64233 -52.19583,37.72158 -54.86084,36.87035 -0.50178,-0.1602 -3.10737,-1.39201 -5.79025,-2.73719 z M 136.14619,126.84401 c -0.89596,-1.4497 1.48845,-5.0651 5.31624,-8.06079 3.81748,-2.98762 23.39921,-18.76296 43.51494,-35.05632 20.11577,-16.29333 37.91901,-29.10815 39.56276,-28.47739 4.83523,1.85546 22.95855,62.15558 19.81823,65.93944 -1.7408,2.09753 -11.44704,3.58687 -29.20567,4.48131 -73.90292,3.72226 -77.39932,3.7742 -79.0065,1.17375 z m 125.65005,-8.81656 c -6.68344,-3.51724 -8.35482,-6.81477 -16.22088,-32.00251 -4.8233,-15.44466 -8.0672,-28.78369 -7.20862,-29.64227 2.27255,-2.27255 103.26711,49.2582 103.26711,52.69028 0,2.47485 -28.40092,7.67808 -66.45312,12.17463 -3.26332,0.38562 -9.28636,-1.06344 -13.38449,-3.22013 z M 293.80137,73.064 C 266.84083,59.08796 245.08138,47.340574 245.44701,46.958674 c 0.84827,-0.88603 79.17271,-9.933282 85.50687,-9.876892 9.46322,0.0842 12.89453,5.80506 18.16129,30.279378 4.23987,19.70227 4.61499,24.622 2.10763,27.64314 -1.67759,2.0214 -4.2544,3.62922 -5.72622,3.57295 C 344.02474,98.52095 320.7619,87.04 293.80137,73.064 Z m 74.58462,20.39774 c -6.14835,-3.00096 -6.261,-3.29918 -12.16781,-32.20623 -2.4722,-12.098566 -3.62515,-22.534918 -2.56214,-23.191898 3.3764,-2.08674 75.55745,11.491232 76.68319,14.424882 1.05709,2.754696 -48.16444,42.193756 -53.78128,43.092616 -1.58632,0.25386 -5.2637,-0.69986 -8.17196,-2.11937 z"
     id="path898"
     inkscape:connector-curvature="0"
     inkscape:export-xdpi="96"
     inkscape:export-ydpi="96" />
  <path
     style="fill:#00aa44;fill-opacity:1;stroke-width:2.19983554"
     d="m 66.414202,663.29849 c -1.451891,-1.45189 -2.639802,-5.10935 -2.639802,-8.12767 0,-7.87508 36.9686,-101.56592 42.40706,-107.47369 5.80728,-6.30845 19.0567,-6.77239 24.41203,-0.85481 5.06567,5.5975 43.17269,101.03456 43.17269,108.12377 0,7.37679 -3.759,10.9722 -11.47148,10.9722 -6.89556,0 -13.05366,-7.93071 -17.50854,-22.54831 l -2.5141,-8.24939 H 118.72095 95.169835 l -3.863945,10.44922 c -5.998456,16.22155 -9.272471,20.34848 -16.143052,20.34848 -3.359858,0 -7.296744,-1.18791 -8.748636,-2.6398 z m 67.754938,-47.45664 c 0,-0.93503 -2.80953,-9.10192 -6.24341,-18.14864 -3.43388,-9.04673 -6.92191,-18.32265 -7.75121,-20.61316 -0.82927,-2.29051 -1.91371,-3.75865 -2.40984,-3.26253 -0.49612,0.49613 -4.38978,10.53707 -8.65256,22.31321 l -7.75053,21.41117 h 16.40377 c 9.02208,0 16.40378,-0.76503 16.40378,-1.70005 z m 59.83553,47.45664 c -3.40993,-3.40993 -3.40993,-15.50866 0,-18.91859 3.24303,-3.24303 11.59416,-3.41802 17.30333,-0.36258 4.87751,2.61037 5.91396,14.98245 1.61524,19.28117 -3.40993,3.40993 -15.50864,3.40993 -18.91857,0 z m 61.23281,-1.61526 c -3.0642,-5.72553 -3.0642,-108.95514 0,-114.68068 3.1492,-5.88433 16.49454,-5.88433 19.64374,0 1.38928,2.59592 2.27723,24.95416 2.27723,57.34034 0,32.38619 -0.88795,54.74442 -2.27723,57.34034 -1.57187,2.93708 -4.61416,4.25506 -9.82188,4.25506 -5.2077,0 -8.24999,-1.31798 -9.82186,-4.25506 z m 46.55912,1.61526 c -1.45189,-1.45189 -2.63981,-5.70857 -2.63981,-9.4593 0,-8.15397 3.41843,-12.09909 10.48385,-12.09909 9.12268,0 13.71435,3.92948 13.71435,11.73653 0,3.95013 -1.18791,8.36997 -2.6398,9.82186 -3.40995,3.40993 -15.50864,3.40993 -18.91859,0 z m 165.40149,0.48381 c -11.70346,-4.72873 -17.38343,-21.12479 -11.66553,-33.67423 3.52306,-7.73226 12.04845,-11.83791 34.96928,-16.84045 11.29017,-2.46411 20.89534,-4.84797 21.34483,-5.29746 2.18954,-2.18955 -4.27148,-12.7788 -9.15444,-15.00363 -8.27299,-3.76942 -21.92826,0.93167 -26.83526,9.23855 -2.79309,4.72833 -5.53543,6.53749 -9.90958,6.53749 -15.20061,0 -11.13304,-20.35402 5.69562,-28.50063 11.85236,-5.73763 37.71477,-6.21378 48.91164,-0.90052 11.05139,5.24422 13.98454,12.69522 13.98454,35.52452 0,10.74747 1.12358,25.13557 2.49682,31.97355 1.95445,9.73193 1.89596,13.15671 -0.26934,15.76574 -4.20836,5.07073 -14.60226,4.15348 -18.99999,-1.67675 l -3.77891,-5.0098 -9.89565,5.0098 c -10.28276,5.2058 -27.73236,6.55555 -36.89403,2.85382 z m 36.48524,-17.38584 c 4.97144,-3.60372 10.5696,-19.07638 7.87646,-21.76954 -0.57765,-0.57764 -5.79034,0.0985 -11.58373,1.50256 -22.35628,5.41806 -26.47049,8.81593 -22.6958,18.74411 3.28876,8.65013 15.59191,9.35975 26.40307,1.52287 z m 55.59318,17.00119 c -3.8484,-3.84839 -3.94109,-114.16841 -0.0991,-118.01034 3.40297,-3.40297 13.31577,-3.40297 16.71874,0 1.67349,1.67348 2.6398,10.1045 2.6398,23.03196 v 20.39218 l 8.00643,-5.43329 c 13.95386,-9.46937 34.67911,-6.81582 46.1347,5.90684 16.21416,18.00746 11.83275,58.69209 -7.71994,71.68589 -10.45015,6.94467 -27.63246,6.85118 -38.03318,-0.20696 l -7.62481,-5.17432 -2.03146,4.62437 c -2.36665,5.38736 -13.76959,7.40519 -17.99111,3.18367 z m 52.9668,-19.3587 c 9.31157,-8.91957 9.05964,-35.30394 -0.42781,-44.79129 -6.31656,-6.31662 -16.83485,-5.74997 -23.87075,1.28601 -6.92969,6.92962 -9.46108,26.05895 -4.90424,37.06012 4.99862,12.06791 19.89964,15.35663 29.2028,6.44516 z m -248.03424,16.24261 c -2.95053,-2.95052 -3.45689,-11.18849 -3.45689,-56.24041 0,-32.17819 0.88899,-54.44461 2.27723,-57.0386 3.1492,-5.88433 16.49454,-5.88433 19.64374,0 1.36301,2.54684 2.27723,22.85893 2.27723,50.59622 v 46.34116 h 28.64502 c 28.01284,0 28.69751,0.11516 31.02402,5.22133 1.72689,3.79011 1.69275,6.50358 -0.12457,9.89926 -2.40158,4.48728 -4.01818,4.67793 -39.66628,4.67793 -30.85113,0 -37.74977,-0.58709 -40.61955,-3.45689 z"
     id="path838"
     inkscape:connector-curvature="0"
     inkscape:export-xdpi="96"
     inkscape:export-ydpi="96" />
</svg>
